<svg class="logo-dark" alt="ARK Cregital logo" width="170px" height="50px" viewBox="0 0 170 50" version="1.1" xmlns="http://www.w3.org/2000/svg" xmlns:xlink="http://www.w3.org/1999/xlink">
                        <defs>
                            <polygon id="path-1" points="0 49.939 169.67 49.939 169.67 0 0 0"></polygon>
                            <polygon id="path-3" points="0 49.939 169.67 49.939 169.67 0 0 0"></polygon>
                            <polygon id="path-5" points="0 49.939 169.67 49.939 169.67 0 0 0"></polygon>
                            <polygon id="path-7" points="0 49.939 169.67 49.939 169.67 0 0 0"></polygon>
                            <polygon id="path-9" points="0 49.939 169.67 49.939 169.67 0 0 0"></polygon>
                            <polygon id="path-11" points="0 49.939 169.67 49.939 169.67 0 0 0"></polygon>
                            <polygon id="path-13" points="0 49.939 169.67 49.939 169.67 0 0 0"></polygon>
                            <polygon id="path-15" points="0 49.939 169.67 49.939 169.67 0 0 0"></polygon>
                        </defs>
                        <g id="Page-1" stroke="none" stroke-width="1" fill="none" fill-rule="evenodd">
                            <g id="Desktop-HD" transform="translate(-62.000000, -137.000000)">
                                <g id="ark-acts-of-random-kindness-light" transform="translate(62.000000, 137.000000)">
                                    <path d="M22.662,39.243 C22.662,40.5112 23.06794,41.4981 23.8795,42.2046 C24.69138,42.91111 25.9308,43.2645 27.5968,43.2645 C29.7264,43.2645 31.4769,42.72443 32.8476,41.644 C34.2182,40.5628 34.9041,39.1187 34.9041,37.3098 L34.9041,34.5043 L31.298,34.5043 C28.4296,34.5043 26.2732,34.86286 24.8287,35.58 C23.3842,36.29678 22.662,37.518 22.662,39.243 M13.2423,39.81732 C13.2423,37.87792 13.67365,36.20152 14.5364,34.78892 C15.39876,33.37662 16.6341,32.24852 18.2424,31.40472 C19.85,30.56191 21.7087,29.93962 23.8177,29.53892 C25.9264,29.13858 28.3332,28.93789 31.0384,28.93789 L34.9041,28.93789 L34.9041,27.55539 C34.9041,25.39069 34.49782,23.79339 33.6863,22.76459 C32.87442,21.73579 31.4457,21.22139 29.3999,21.22139 C25.9838,21.22139 24.0646,22.86589 23.6426,26.15499 L14.5698,26.15499 C14.76418,23.56149 15.56542,21.37929 16.9738,19.60839 C18.3819,17.83719 20.1849,16.55159 22.3832,15.74979 C24.5808,14.94911 27.1198,14.54839 30.0013,14.54839 C34.4553,14.54839 37.9559,15.54979 40.5033,17.55249 C43.0506,19.55589 44.324,22.75009 44.324,27.13539 L44.324,49.21039 L35.0317,49.21039 L35.0317,45.13059 C32.754,48.33609 29.3482,49.93809 24.8137,49.93809 C21.4398,49.93809 18.6683,49.09494 16.4985,47.40799 C14.3277,45.72139 13.2427,43.19119 13.2427,39.81759" id="Shape" fill="#2D2D2D" fill-rule="nonzero"></path>
                                    <path d="M49.49497,49.2102 L49.495,15.339 L58.9144,15.339 L58.9144,21.4732 C60.0137,19.2698 61.4407,17.6174 63.1963,16.5153 C64.9509,15.4136 67.1812,14.853 69.8881,14.8328 L69.8881,23.1188 L69.57077,23.1188 C66.10277,23.1188 63.47037,23.78387 61.67387,25.1133 C59.83407,26.4862 58.91437,28.7595 58.91437,31.9342 L58.91437,49.2102 L49.49497,49.2102 Z" id="Path" fill="#2D2D2D"></path>
                                    <polygon id="Path" fill="#2D2D2D" points="73.443 49.21 73.443 3.4247e-05 82.863 3.4247e-05 82.863 29.665 93.773 15.339 103.76 15.339 91.426 30.74 104.75 49.21 94.09 49.21 82.863 33.207 82.863 49.21"></polygon>
                                    <path d="M111.33,20.792 C111.33,21.08926 111.425131,21.32077 111.61539,21.48618 C111.806,21.65228 112.0962,21.73481 112.48703,21.73481 C112.98604,21.73481 113.39679,21.60844 113.71793,21.35502 C114.03938,21.1016 114.19977,20.7629 114.19977,20.33892 L114.19977,19.68139 L113.35492,19.68139 C112.68248,19.68139 112.17662,19.765294 111.83792,19.93344 C111.49929,20.10125 111.32998,20.38755 111.32998,20.792 M109.12168,20.92693 C109.12168,20.47179 109.22299,20.07933 109.42528,19.74783 C109.62722,19.41667 109.91708,19.15228 110.29383,18.95468 C110.67092,18.75708 111.10674,18.61119 111.60093,18.51701 C112.09547,18.423517 112.65943,18.37626 113.29373,18.37626 L114.19971,18.37626 L114.19971,18.05229 C114.19971,17.54476 114.104579,17.17044 113.91432,16.92939 C113.7244,16.68829 113.38921,16.5674 112.90982,16.5674 C112.10893,16.5674 111.65902,16.95302 111.56012,17.7239 L109.43322,17.7239 C109.478553,17.11602 109.66641,16.6044 109.99645,16.1893 C110.32683,15.77423 110.7496,15.47286 111.26475,15.28485 C111.7799,15.09684 112.37505,15.003 113.05065,15.003 C114.09465,15.003 114.91515,15.23793 115.51275,15.70711 C116.10929,16.17697 116.40774,16.92591 116.40774,17.95371 L116.40774,23.12871 L114.22964,23.12871 L114.22964,22.1722 C113.69594,22.92391 112.89714,23.2993 111.83454,23.2993 C111.04361,23.2993 110.39344,23.1017 109.88524,22.70615 C109.37627,22.31094 109.12178,21.71779 109.12178,20.92705" id="Shape" fill="#2D2D2D" fill-rule="nonzero"></path>
                                    <path d="M117.14,19.258 L117.14,19.13197 C117.14,18.30149 117.32271,17.56897 117.68846,16.93367 C118.05387,16.2984 118.54361,15.81787 119.15696,15.49187 C119.77033,15.1655 120.45236,15.00214 121.20316,15.00214 C121.60738,15.00214 121.98894,15.035702 122.34816,15.10248 C122.70774,15.169261 123.05289,15.28056 123.38326,15.43604 C123.71399,15.59186 124.00213,15.7857 124.24906,16.01823 C124.49565,16.25042 124.70033,16.54186 124.86278,16.89289 C125.02557,17.24392 125.12791,17.64152 125.16981,18.08639 L122.87191,18.08639 C122.72801,17.16242 122.18916,16.70009 121.25541,16.70009 C120.67432,16.70009 120.21101,16.90797 119.86591,17.32304 C119.5211,17.73845 119.34835,18.31893 119.34835,19.06554 L119.34835,19.19157 C119.34835,19.98198 119.51698,20.58127 119.85492,20.98917 C120.19286,21.39707 120.67435,21.60081 121.30012,21.60081 C121.76204,21.60081 122.14943,21.47204 122.46232,21.21382 C122.77519,20.9556 122.95686,20.58574 123.00632,20.10322 L125.21462,20.10322 C125.148338,21.06692 124.7606,21.84052 124.05142,22.42372 C123.34188,23.00694 122.38752,23.29872 121.18852,23.29872 C120.60949,23.29872 120.07472,23.208309 119.58402,23.02817 C119.09325,22.84735 118.66636,22.58947 118.30332,22.25317 C117.93997,21.91721 117.65526,21.49187 117.4492,20.97787 C117.24314,20.46383 117.14011,19.89087 117.14011,19.25797" id="Path" fill="#2D2D2D"></path>
                                    <path d="M125.14,16.752 L125.14,15.188 L126.1439,15.188 L126.1439,13.4678 L128.3522,13.4678 L128.3522,15.188 L130.01,15.188 L130.01,16.752 L128.3522,16.752 L128.3522,20.5541 C128.3522,21.17773 128.64412,21.48972 129.22899,21.48972 C129.524,21.48972 129.79875,21.43835 130.05461,21.33493 L130.05461,23.06543 C129.64798,23.20618 129.20186,23.27639 128.71621,23.27639 C127.87857,23.27639 127.24011,23.06612 126.80191,22.64625 C126.36334,22.22604 126.14389,21.60345 126.14389,20.77805 L126.14389,16.75205 L125.13999,16.75205 L125.14,16.752 Z" id="Path" fill="#2D2D2D"></path>
                                    <path d="M130.59,20.637 L132.6496,20.637 C132.699398,21.00275 132.8299,21.27741 133.04214,21.45995 C133.2537,21.64317 133.59129,21.73427 134.05494,21.73427 C134.88502,21.73427 135.30024,21.45037 135.30024,20.88187 C135.30024,20.6192 135.17901,20.42125 134.93689,20.28735 C134.69477,20.15413 134.27956,20.04386 133.69159,19.95619 C132.57779,19.79557 131.78209,19.53804 131.30369,19.18359 C130.82563,18.8288 130.58625,18.27503 130.58625,17.52159 C130.58625,17.1144 130.677947,16.74762 130.86065,16.42019 C131.04301,16.09348 131.29132,15.82978 131.60419,15.62841 C131.9174,15.42738 132.27011,15.27293 132.66159,15.16471 C133.05311,15.05649 133.46797,15.00238 133.90659,15.00238 C135.96509,15.00238 137.08539,15.82293 137.26809,17.46368 L135.16659,17.46368 C135.107176,17.15341 134.97873,16.92601 134.78126,16.78252 C134.58344,16.63868 134.29702,16.56677 133.9213,16.56677 C133.57065,16.56677 133.29488,16.641085 133.095,16.78937 C132.89478,16.93732 132.7945,17.13321 132.7945,17.37601 C132.7945,17.61881 132.90302,17.79861 133.12076,17.91539 C133.33815,18.03217 133.741,18.13388 134.32926,18.22121 C134.86261,18.299292 135.31354,18.39005 135.68166,18.4945 C136.04982,18.59929 136.37918,18.74245 136.67041,18.92464 C136.9613,19.10683 137.17354,19.34142 137.30748,19.62806 C137.44108,19.9147 137.50839,20.26196 137.50839,20.67016 C137.50839,21.52427 137.20823,22.17566 136.60859,22.62496 C136.00861,23.07393 135.16209,23.29859 134.06959,23.29859 C132.98879,23.29859 132.14739,23.06914 131.54539,22.60921 C130.94301,22.14962 130.62464,21.49211 130.58996,20.63691" id="Path" fill="#2D2D2D"></path>
                                    <path d="M142.54,19.198 C142.54,19.95759 142.71,20.5477 143.05,20.9689 C143.39069,21.39013 143.87081,21.60075 144.4917,21.60075 C145.10748,21.60075 145.5866,21.39013 145.9293,20.9689 C146.27205,20.54767 146.44342,19.9621 146.44342,19.2127 L146.44342,19.10277 C146.44342,18.34832 146.27205,17.75927 145.9293,17.33567 C145.58655,16.91204 145.10746,16.70005 144.4917,16.70005 C143.88073,16.70005 143.403,16.90793 143.0579,17.32437 C142.71275,17.74081 142.54,18.32369 142.54,19.07337 L142.54,19.19803 L142.54,19.198 Z M140.3317,19.243206 L140.3317,19.117176 C140.3317,18.301426 140.51372,17.579876 140.87673,16.952076 C141.23974,16.324276 141.73566,15.842476 142.36383,15.506576 C142.99197,15.170276 143.70153,15.002126 144.49173,15.002126 C145.69853,15.002126 146.69353,15.375416 147.47683,16.122026 C148.25986,16.868256 148.65173,17.851826 148.65173,19.072726 L148.65173,19.198756 C148.65173,20.018966 148.46937,20.742256 148.10464,21.367256 C147.74026,21.992596 147.24262,22.471056 146.61204,22.801856 C145.98149,23.133016 145.26954,23.298776 144.47694,23.298776 C143.69631,23.298776 142.99294,23.134046 142.36754,22.805626 C141.7418,22.476856 141.24584,22.002206 140.88014,21.382026 C140.51473,20.761816 140.33168,20.048826 140.33168,19.243326 L140.3317,19.243206 Z" id="Shape" fill="#2D2D2D" fill-rule="nonzero"></path>
                                    <path d="M148.91,16.752 L148.91,15.188 L149.9434,15.188 L149.9434,14.27053 C149.9434,13.35546 150.19239,12.66063 150.69071,12.18563 C151.18903,11.71063 151.88891,11.4733 152.79111,11.4733 C153.2022,11.4733 153.58376,11.52604 153.93611,11.63118 L153.93611,13.30478 C153.68059,13.215739 153.41237,13.17122 153.13213,13.17122 C152.79797,13.17122 152.55104,13.265056 152.39134,13.45273 C152.2313,13.64074 152.15128,13.8952 152.15128,14.21677 L152.15128,15.188 L153.87638,15.188 L153.87638,16.752 L152.15128,16.752 L152.15128,23.128 L149.94338,23.128 L149.94338,16.752 L148.90998,16.752 L148.91,16.752 Z" id="Path" fill="#2D2D2D"></path>
                                    <path d="M109.64,36.449 L109.64,28.5086 L111.8483,28.5086 L111.8483,29.947 C112.10588,29.43022 112.44038,29.04289 112.8522,28.7843 C113.26329,28.52608 113.786,28.39457 114.4207,28.39012 L114.4207,30.33262 L114.346518,30.33262 C113.533608,30.33262 112.916418,30.48844 112.495018,30.80009 C112.064008,31.12167 111.848328,31.65488 111.848328,32.39909 L111.848328,36.44909 L109.64,36.44909 L109.64,36.449 Z" id="Path" fill="#2D2D2D"></path>
                                    <path d="M116.79,34.112 C116.79,34.40926 116.885131,34.64077 117.07539,34.80618 C117.266,34.97228 117.5562,35.05481 117.94703,35.05481 C118.44604,35.05481 118.85679,34.92844 119.17793,34.67502 C119.49939,34.4216 119.65977,34.0829 119.65977,33.65892 L119.65977,33.00139 L118.81492,33.00139 C118.14248,33.00139 117.63662,33.085294 117.29792,33.25344 C116.95929,33.42125 116.78998,33.70755 116.78998,34.112 M114.58208,34.24693 C114.58208,33.79179 114.68339,33.39933 114.88568,33.06783 C115.08762,32.73667 115.37748,32.47228 115.75388,32.27468 C116.13097,32.07708 116.56679,31.93119 117.06098,31.83701 C117.55552,31.743517 118.11948,31.69626 118.75378,31.69626 L119.65976,31.69626 L119.65976,31.37229 C119.65976,30.86476 119.564629,30.49044 119.37437,30.24939 C119.18445,30.00829 118.84926,29.8874 118.36987,29.8874 C117.56898,29.8874 117.11907,30.27302 117.02017,31.0439 L114.89367,31.0439 C114.939003,30.43602 115.12686,29.9244 115.4569,29.5093 C115.78694,29.09423 116.20971,28.79286 116.7249,28.60485 C117.24005,28.41684 117.8352,28.323 118.5108,28.323 C119.5548,28.323 120.3753,28.55793 120.9729,29.02711 C121.56979,29.49697 121.86823,30.24591 121.86823,31.27371 L121.86823,36.44871 L119.68983,36.44871 L119.68983,35.4922 C119.15613,36.24391 118.35733,36.6193 117.29473,36.6193 C116.5038,36.6193 115.85373,36.4217 115.34573,36.02615 C114.83676,35.63094 114.58228,35.03779 114.58228,34.24705" id="Shape" fill="#2D2D2D" fill-rule="nonzero"></path>
                                    <path d="M123.08,36.449 L123.08,28.5086 L125.2883,28.5086 L125.2883,29.7634 C125.50123,29.33977 125.8299,28.99388 126.27327,28.7257 C126.71699,28.45755 127.25137,28.32296 127.87577,28.32296 C128.69829,28.32296 129.35147,28.57912 129.83467,29.09077 C130.31788,29.60207 130.55932,30.36957 130.55932,31.39247 L130.55932,36.449 L128.35142,36.44897 L128.35142,31.70577 C128.35142,31.16159 128.23877,30.75954 128.01314,30.49957 C127.7875,30.23998 127.43205,30.10984 126.94644,30.10984 C126.45567,30.10984 126.0566,30.26087 125.74924,30.56292 C125.44187,30.86463 125.28835,31.29751 125.28835,31.86152 L125.28835,36.44882 L123.08005,36.44882 L123.08,36.449 Z" id="Path" fill="#2D2D2D"></path>
                                    <path d="M133.58,32.564 C133.58,33.33249 133.74897,33.9178 134.08691,34.3191 C134.42451,34.72081 134.87612,34.9215 135.44281,34.9215 C136.04348,34.9215 136.52121,34.71945 136.87661,34.31534 C137.23172,33.91157 137.40893,33.31774 137.40893,32.53454 L137.40893,32.40817 C137.40893,31.62495 137.24408,31.03077 136.9137,30.62697 C136.58332,30.22286 136.11315,30.02081 135.5022,30.02081 C134.88127,30.02081 134.4056,30.22663 134.0752,30.63828 C133.74516,31.04958 133.57997,31.64958 133.57997,32.43798 L133.57997,32.56401 L133.58,32.564 Z M131.3717,32.593452 L131.3717,32.467772 C131.3717,31.192472 131.69659,30.182872 132.34499,29.438972 C132.99408,28.695132 133.82279,28.322872 134.83179,28.322872 C136.01359,28.322872 136.85289,28.782122 137.34989,29.700972 L137.34989,24.920172 L139.55779,24.920172 L139.55779,36.449172 L137.34989,36.449172 L137.34989,35.148472 C137.13593,35.567992 136.79593,35.918332 136.32919,36.198472 C135.86246,36.479292 135.34594,36.619702 134.77959,36.619702 C133.78569,36.619702 132.96939,36.267302 132.33019,35.563202 C131.6914,34.858752 131.37167,33.869002 131.37167,32.593702 L131.3717,32.593452 Z" id="Shape" fill="#2D2D2D" fill-rule="nonzero"></path>
                                    <path d="M142.65,32.519 C142.65,33.27859 142.82,33.8687 143.16,34.2899 C143.50069,34.71113 143.98081,34.92175 144.6017,34.92175 C145.21748,34.92175 145.6966,34.71113 146.0393,34.2899 C146.38205,33.86867 146.55342,33.2831 146.55342,32.5337 L146.55342,32.42377 C146.55342,31.66932 146.38205,31.08027 146.0393,30.65667 C145.69655,30.23304 145.21746,30.02105 144.6017,30.02105 C143.99073,30.02105 143.513,30.22893 143.1679,30.64537 C142.82275,31.06181 142.65,31.64469 142.65,32.39437 L142.65,32.51903 L142.65,32.519 Z M140.4417,32.564206 L140.4417,32.438176 C140.4417,31.622426 140.62372,30.900876 140.98673,30.273076 C141.34974,29.645276 141.84566,29.163476 142.47383,28.827576 C143.10197,28.491276 143.81153,28.323126 144.60173,28.323126 C145.80853,28.323126 146.80353,28.696416 147.58683,29.443026 C148.36986,30.189256 148.76173,31.172826 148.76173,32.393726 L148.76173,32.519756 C148.76173,33.339966 148.57937,34.063256 148.21464,34.688256 C147.85026,35.313596 147.35262,35.792056 146.72204,36.122856 C146.09149,36.454016 145.37954,36.619776 144.58694,36.619776 C143.80631,36.619776 143.10294,36.455046 142.47754,36.126626 C141.8518,35.797856 141.35584,35.323206 140.99014,34.703026 C140.62473,34.082816 140.44168,33.369826 140.44168,32.564326 L140.4417,32.564206 Z" id="Shape" fill="#2D2D2D" fill-rule="nonzero"></path>
                                    <path d="M149.69,36.44903 L149.69,28.5086 L151.8983,28.5086 L151.8983,29.7076 C152.11123,29.31239 152.43097,28.9826 152.85751,28.7189 C153.28371,28.4552 153.77654,28.32301 154.33671,28.32301 C155.45351,28.32301 156.19881,28.77986 156.57251,29.69321 C156.87954,29.2391 157.27037,28.89732 157.74531,28.66751 C158.22062,28.43806 158.72066,28.32299 159.24511,28.32299 C160.03467,28.32299 160.67171,28.57813 161.15671,29.08703 C161.6413,29.59593 161.88342,30.35483 161.88342,31.36273 L161.88342,36.44903 L159.67512,36.44903 L159.67512,31.59043 C159.67512,30.60379 159.25991,30.10993 158.42952,30.10993 C157.98443,30.10993 157.61764,30.25137 157.32842,30.53425 C157.0389,30.81713 156.89466,31.21884 156.89466,31.73935 L156.89466,36.44895 L154.68636,36.44895 L154.68636,31.59035 C154.68636,31.09446 154.57715,30.72391 154.35941,30.47805 C154.14099,30.23284 153.83361,30.1099 153.43729,30.1099 C152.99117,30.1099 152.62301,30.25134 152.33319,30.53422 C152.04333,30.8171 151.8984,31.21881 151.8984,31.73932 L151.8984,36.44892 L149.6901,36.44892 L149.69,36.44903 Z" id="Path" fill="#2D2D2D"></path>
                                    <polygon id="Path" fill="#2D2D2D" points="109.64 49.769 109.64 38.233 111.85 38.233 111.85 45.187 114.41 41.828 116.75 41.828 113.86 45.439 116.98 49.769 114.48 49.769 111.85 46.017 111.85 49.769"></polygon>
                                    <g id="Clipped">
                                        <mask id="mask-2" fill="white">
                                            <use xlink:href="#path-1"></use>
                                        </mask>
                                        <g id="b"></g>
                                        <path d="M117.49,49.769 L119.6983,49.769 L119.6983,41.8286 L117.49,41.8286 L117.49,49.769 Z M117.72113,40.405 C117.48759,40.17795 117.37151,39.8937 117.37151,39.5526 C117.37151,39.2115 117.48759,38.92623 117.72113,38.69644 C117.95432,38.4663 118.24178,38.35158 118.58315,38.35158 C118.94204,38.35158 119.24392,38.46631 119.4881,38.69644 C119.73262,38.92623 119.85454,39.21151 119.85454,39.5526 C119.85454,39.89369 119.73262,40.17794 119.4881,40.405 C119.24392,40.6324 118.94204,40.7461 118.58315,40.7461 C118.24178,40.7461 117.95432,40.6324 117.72113,40.405 Z" id="Shape" fill="#2D2D2D" fill-rule="nonzero" mask="url(#mask-2)"></path>
                                    </g>
                                    <g id="Clipped">
                                        <mask id="mask-4" fill="white">
                                            <use xlink:href="#path-3"></use>
                                        </mask>
                                        <g id="b"></g>
                                        <path d="M121.14,49.769 L121.14,41.8286 L123.3483,41.8286 L123.3483,43.0834 C123.56123,42.65977 123.8899,42.31388 124.33327,42.0457 C124.77699,41.77755 125.31137,41.64296 125.93577,41.64296 C126.75829,41.64296 127.41147,41.89912 127.89467,42.41077 C128.37788,42.92207 128.61932,43.68957 128.61932,44.71247 L128.61932,49.769 L126.41142,49.76897 L126.41142,45.02577 C126.41142,44.48159 126.29877,44.07954 126.07314,43.81957 C125.8475,43.55998 125.49205,43.42984 125.00644,43.42984 C124.51567,43.42984 124.1166,43.58087 123.80924,43.88292 C123.50187,44.18463 123.34835,44.61751 123.34835,45.18152 L123.34835,49.76882 L121.14005,49.76882 L121.14,49.769 Z" id="Path" fill="#2D2D2D" mask="url(#mask-4)"></path>
                                    </g>
                                    <g id="Clipped">
                                        <mask id="mask-6" fill="white">
                                            <use xlink:href="#path-5"></use>
                                        </mask>
                                        <g id="b"></g>
                                        <path d="M131.64,45.884 C131.64,46.65249 131.80897,47.2378 132.14691,47.6391 C132.48451,48.04081 132.93612,48.2415 133.50281,48.2415 C134.10348,48.2415 134.58121,48.03945 134.93661,47.63534 C135.29172,47.23157 135.46893,46.63774 135.46893,45.85454 L135.46893,45.72817 C135.46893,44.94495 135.30408,44.35077 134.9737,43.94697 C134.64332,43.54286 134.17315,43.34081 133.5622,43.34081 C132.94127,43.34081 132.4656,43.54663 132.1352,43.95828 C131.80516,44.36958 131.63997,44.96958 131.63997,45.75798 L131.63997,45.88401 L131.64,45.884 Z M129.4317,45.913452 L129.4317,45.787772 C129.4317,44.512472 129.75659,43.502872 130.40499,42.758972 C131.05408,42.015132 131.88279,41.642872 132.89179,41.642872 C134.07359,41.642872 134.91289,42.102122 135.40989,43.020972 L135.40989,38.240172 L137.61779,38.240172 L137.61779,49.769172 L135.40989,49.769172 L135.40989,48.468472 C135.19593,48.887992 134.85593,49.238332 134.38919,49.518472 C133.92246,49.799292 133.40594,49.939702 132.83959,49.939702 C131.84569,49.939702 131.02939,49.587302 130.39019,48.883202 C129.7514,48.178752 129.43167,47.189002 129.43167,45.913702 L129.4317,45.913452 Z" id="Shape" fill="#2D2D2D" fill-rule="nonzero" mask="url(#mask-6)"></path>
                                    </g>
                                    <g id="Clipped">
                                        <mask id="mask-8" fill="white">
                                            <use xlink:href="#path-7"></use>
                                        </mask>
                                        <g id="b"></g>
                                        <path d="M138.98,49.769 L138.98,41.8286 L141.1883,41.8286 L141.1883,43.0834 C141.40123,42.65977 141.7299,42.31388 142.17327,42.0457 C142.61699,41.77755 143.15137,41.64296 143.77577,41.64296 C144.59829,41.64296 145.25147,41.89912 145.73467,42.41077 C146.21788,42.92207 146.45932,43.68957 146.45932,44.71247 L146.45932,49.769 L144.25142,49.76897 L144.25142,45.02577 C144.25142,44.48159 144.13877,44.07954 143.91314,43.81957 C143.6875,43.55998 143.33205,43.42984 142.84644,43.42984 C142.35567,43.42984 141.9566,43.58087 141.64924,43.88292 C141.34187,44.18463 141.18835,44.61751 141.18835,45.18152 L141.18835,49.76882 L138.98005,49.76882 L138.98,49.769 Z" id="Path" fill="#2D2D2D" mask="url(#mask-8)"></path>
                                    </g>
                                    <g id="Clipped">
                                        <mask id="mask-10" fill="white">
                                            <use xlink:href="#path-9"></use>
                                        </mask>
                                        <g id="b"></g>
                                        <path d="M149.48999,44.942 L153.059,44.942 C152.984131,43.7855 152.40304,43.2074 151.315,43.2074 C150.81839,43.2074 150.41142,43.35911 150.0934,43.66288 C149.77538,43.96596 149.57413,44.39267 149.48999,44.94198 M147.25179,45.89849 L147.25179,45.77246 C147.25179,44.54166 147.63712,43.54576 148.40809,42.78446 C149.1791,42.02384 150.14789,41.64266 151.31489,41.64266 C151.85408,41.64266 152.35549,41.722112 152.81849,41.88033 C153.28213,42.03821 153.69906,42.27554 154.06929,42.59197 C154.43951,42.90841 154.73177,43.33101 154.94573,43.85977 C155.15969,44.38854 155.26684,44.99637 155.26684,45.68337 L155.26684,46.29125 L149.46004,46.29125 C149.489919,46.95392 149.67743,47.46655 150.02259,47.82995 C150.36774,48.19296 150.84099,48.37447 151.44199,48.37447 C152.40051,48.37447 152.95409,48.00392 153.10319,47.26247 L155.25169,47.26247 C155.12084,48.11761 154.72005,48.77757 154.04999,49.24227 C153.37995,49.70665 152.49079,49.93919 151.38219,49.93919 C150.16059,49.93919 149.16699,49.57686 148.40079,48.85289 C147.63493,48.12892 147.25169,47.14399 147.25169,45.89839" id="Shape" fill="#2D2D2D" fill-rule="nonzero" mask="url(#mask-10)"></path>
                                    </g>
                                    <g id="Clipped">
                                        <mask id="mask-12" fill="white">
                                            <use xlink:href="#path-11"></use>
                                        </mask>
                                        <g id="b"></g>
                                        <path d="M155.72,47.278 L157.7796,47.278 C157.829398,47.64375 157.9599,47.91841 158.17214,48.10095 C158.3837,48.28417 158.72129,48.37527 159.18494,48.37527 C160.01502,48.37527 160.43024,48.09137 160.43024,47.52287 C160.43024,47.2602 160.30901,47.06225 160.06689,46.92835 C159.82477,46.79513 159.40956,46.68486 158.82159,46.59719 C157.70779,46.43657 156.91209,46.17904 156.43369,45.82459 C155.95563,45.4698 155.71625,44.91603 155.71625,44.16259 C155.71625,43.7554 155.807947,43.38862 155.99065,43.06119 C156.17301,42.73448 156.42132,42.47078 156.73419,42.26941 C157.0474,42.06838 157.40011,41.91393 157.79159,41.80571 C158.18307,41.69749 158.59797,41.64338 159.03649,41.64338 C161.09499,41.64338 162.21529,42.46393 162.39799,44.10468 L160.29649,44.10468 C160.237076,43.79441 160.10863,43.56701 159.91116,43.42352 C159.71334,43.27968 159.42692,43.20777 159.0512,43.20777 C158.70055,43.20777 158.42478,43.282085 158.2249,43.43037 C158.02468,43.57832 157.9244,43.77421 157.9244,44.01701 C157.9244,44.25981 158.03292,44.43961 158.25066,44.55639 C158.46805,44.67317 158.8709,44.77488 159.45916,44.86221 C159.99251,44.940292 160.44344,45.03105 160.81156,45.1355 C161.17972,45.24029 161.50908,45.38345 161.80031,45.56564 C162.0912,45.74783 162.30344,45.98242 162.43738,46.26906 C162.57098,46.5557 162.63829,46.90296 162.63829,47.31116 C162.63829,48.16527 162.33813,48.81666 161.73849,49.26596 C161.13851,49.71493 160.29199,49.93959 159.19949,49.93959 C158.11869,49.93959 157.27729,49.71014 156.67529,49.25021 C156.07291,48.79062 155.75454,48.13311 155.71986,47.27791" id="Path" fill="#2D2D2D" mask="url(#mask-12)"></path>
                                    </g>
                                    <g id="Clipped">
                                        <mask id="mask-14" fill="white">
                                            <use xlink:href="#path-13"></use>
                                        </mask>
                                        <g id="b"></g>
                                        <path d="M162.75,47.278 L164.8096,47.278 C164.859398,47.64375 164.9899,47.91841 165.20215,48.10095 C165.41371,48.28417 165.7513,48.37527 166.21495,48.37527 C167.04503,48.37527 167.46025,48.09137 167.46025,47.52287 C167.46025,47.2602 167.33902,47.06225 167.0969,46.92835 C166.85478,46.79513 166.43957,46.68486 165.8516,46.59719 C164.7378,46.43657 163.9421,46.17904 163.4637,45.82459 C162.98564,45.4698 162.74627,44.91603 162.74627,44.16259 C162.74627,43.7554 162.837967,43.38862 163.02067,43.06119 C163.20303,42.73448 163.45134,42.47078 163.76421,42.26941 C164.07742,42.06838 164.43013,41.91393 164.82161,41.80571 C165.21313,41.69749 165.62799,41.64338 166.06651,41.64338 C168.12501,41.64338 169.24531,42.46393 169.42801,44.10468 L167.32651,44.10468 C167.267095,43.79441 167.13865,43.56701 166.94118,43.42352 C166.74336,43.27968 166.45694,43.20777 166.08122,43.20777 C165.73057,43.20777 165.4548,43.282085 165.25492,43.43037 C165.0547,43.57832 164.95442,43.77421 164.95442,44.01701 C164.95442,44.25981 165.06294,44.43961 165.28068,44.55639 C165.49807,44.67317 165.90092,44.77488 166.48918,44.86221 C167.02253,44.940292 167.47346,45.03105 167.84158,45.1355 C168.20974,45.24029 168.5391,45.38345 168.83033,45.56564 C169.12122,45.74783 169.33346,45.98242 169.4674,46.26906 C169.601,46.5557 169.66831,46.90296 169.66831,47.31116 C169.66831,48.16527 169.36815,48.81666 168.76851,49.26596 C168.16853,49.71493 167.32201,49.93959 166.22951,49.93959 C165.14871,49.93959 164.30731,49.71014 163.70531,49.25021 C163.10293,48.79062 162.78456,48.13311 162.74988,47.27791" id="Path" fill="#2D2D2D" mask="url(#mask-14)"></path>
                                    </g>
                                    <g id="Clipped">
                                        <mask id="mask-16" fill="white">
                                            <use xlink:href="#path-15"></use>
                                        </mask>
                                        <g id="b"></g>
                                        <path d="M3.2533,10.694 C1.8346,10.6950274 0.8929,11.3577 0.2877,12.78 C0.07924,13.26973 -0.01658,13.7834 0.00231,14.3074 C0.035623,15.2074 0.39692,16.1673 1.10711,17.2427 C2.22051,18.928 3.81301,20.6547 5.71261,22.2359 C6.06909,22.53282 6.44035,22.82563 6.81951,23.10816 C7.19797,22.82563 7.56957,22.53282 7.92601,22.2359 C9.82591,20.6547 11.41801,18.928 12.53181,17.2427 C13.24203,16.1674 13.60331,15.2074 13.63631,14.3074 C13.655542,13.78343 13.559724,13.2697 13.35092,12.78 C12.74613,11.3577 11.80412,10.6951 10.38672,10.694 C8.91232,10.694 7.85662,12.0166 7.23092,13.1265 L6.81949,13.85561 L6.40806,13.1265 C5.78198,12.0166 4.72656,10.694 3.25326,10.694" id="Path" fill="#00BABA" mask="url(#mask-16)"></path>
                                    </g>
                                </g>
                            </g>
                        </g>
                    </svg>
