<svg version="1.1" viewBox="0 0 402 297" xmlns="http://www.w3.org/2000/svg">
                                            <g fill="none" fill-rule="evenodd">
                                                <g transform="translate(-794 -984)">
                                                    <g transform="translate(794 984)">
                                                        <polygon points="344 230.05 308.67 168.85 332.72 168.85 332.72 168.85 300.08 112.32 323.2 112.32 323.2 112.32 258.35 0 255.82 4.4 255.82 4.4 193.51 112.32 216.63 112.32 183.99 168.85 208.05 168.85 172.71 230.05 238.4 230.05 238.4 280.43 278.32 280.43 278.32 230.05" fill="#E8F8F8"></polygon>
                                                        <polygon points="182.86 240.59 158.14 197.78 174.96 197.78 174.96 197.78 152.13 158.22 168.31 158.22 168.31 158.22 122.93 79.623 121.15 82.697 121.15 82.697 77.554 158.22 93.737 158.22 70.891 197.78 87.726 197.78 62.994 240.59 108.96 240.59 108.96 275.86 136.89 275.86 136.89 240.59" fill="#E8F8F8"></polygon>
                                                        <path d="m310.61 267.29l26.758 15.415c6.9793-1.2452 15.201-5.1954 21.287-15.744-7.2693-2.9311-15.462-2.167-22.096 2.061 4.5365-6.4263 8.8218-15.644 6.6861-26.02-12.674 5.267-16.457 14.041-17.085 21.469-2.3729-5.5962-6.9793-11.278-15.717-15.228-1.9804 5.855-1.9212 12.233 0.1675 18.048z" fill="#00BABA"></path>
                                                        <path d="m48.149 261.6c-6.3674 0.89268-11.935 4.7512-15.006 10.4 0.74286-6.2971 0.18286-14.434-5.4057-20.8-6.9714 8.7543-6.24 16.389-3.7486 21.851-3.8857-2.9371-9.4171-5.0286-17.143-4.2971 3.5429 15.817 16.811 17.314 22.766 17.166v0.27429s0.4-0.10286 1.0514-0.32c1.1429-0.08 1.8857-0.19429 1.8857-0.19429l-0.13714-0.46857c5.12-2.1371 15.474-8.3657 15.737-23.611z" fill="#00BABA"></path>
                                                        <path d="m139 292.76s88.309-109.71 210.77 0c-2.0114 1.2914-210.77 0-210.77 0z" fill="#017070"></path>
                                                        <g transform="translate(362.5 209.5) scale(-1 1) translate(-39.5 -82.5)">
                                                            <path d="m66.507 18.573c0-0.18073 5.2652-6.446 5.2652-6.446l0.74701-4.2773-4.6146 2.2169-0.97594-2.229-0.93979 0.4699-0.77111 3.0603-1.2049 4.3375-3.3495 3.0844-13.627 11.531s-2.1326 0.55424-5.3375 1.5784c-2.4097 0.77111-5.458 1.8434-8.6389 3.1567-1.4097 0.59038-2.8435 1.2049-4.2652 1.8916-1.6989 1.7109-3.3134 3.482-4.8194 5.3375l12.181 10.928c5.9038-4.2291 12.049-5.3496 15.663-9.2292 6.1809-3.8556 10.784-13.253 13.145-19.507 0.32531-0.80726 0.60243-1.5784 0.83135-2.3254 0.91569-2.735 1.2049-4.3375 0.78316-3.6146l-0.072292 0.036146z" fill="#875A3B"></path>
                                                            <path d="m20.433 86.491c-0.37351 0.73497-0.71087 1.494-1.0241 2.2651-0.08434 0.19278-0.16868 0.38556-0.24097 0.57833-0.31326 0.77111-0.61448 1.5543-0.87955 2.4097-0.26507 0.80726-0.50604 1.6266-0.74701 2.4097-0.060243 0.20483-0.10844 0.40965-0.16868 0.61448-0.4699 1.7109-0.8675 3.458-1.2049 5.217 0 0.16868 0 0.32531-0.096389 0.48194-0.36146 1.8675-0.66267 3.723-0.95184 5.5665 0.005637 0.023767 0.005637 0.048524 0 0.072291-0.53014 3.4941-0.95184 6.8798-1.3976 9.9401-4.217 8.434-9.2051 26.712-12.506 44.074 1.8916 0.73496 3.6146 2.3013 4.4941 2.0965 0-0.072291 0-4.1206 1.3856-6.2532 6.1207-9.0365 23.904-32.085 36.146-61.243-2.8435-1.6386-18.302-5.6749-22.808-8.2292z" fill="#875A3B"></path>
                                                            <path d="m34.036 143.26c2.7109-10.675 7.2292-36.146 7.2292-36.146 0.78316-5.8677 1.4579-11.952 1.9398-18.073v-0.21688c0.15663-2.0362 0.30122-4.0965 0.40965-6.1448-3.229-0.61448-22.037 0.72292-27.133-0.15663v3.3495 0.69882c0 1.0603 0.10844 2.0965 0.19278 3.0965v0.33736c0.072292 0.95184 0.18073 1.8675 0.28917 2.7591v0.4217c0.13253 0.96389 0.27712 1.9037 0.4458 2.8194v0.32531c0.34941 1.8916 0.77111 3.6989 1.2049 5.4219v0.19278c0.50604 1.7952 1.0723 3.5182 1.7109 5.217 0.71087 1.8675 1.482 3.711 2.3133 5.5665-1.1205 9.3618-0.26507 30.049 2.4097 47.508 1.6024 0.003552 3.1716-0.45675 4.5182-1.3253l4.47-15.651z" fill="#724C33"></path>
                                                            <path d="m42.614 164.49l-0.8675-2.6145-11.82-3.0483c-1.3484 0.866-2.9157 1.3299-4.5182 1.3374l-0.59038 4.2773 17.796 0.048195z" fill="#222"></path>
                                                            <polygon points="1.155 160.16 0.56462 164.43 18.312 164.49 17.445 161.88 5.9744 158.92" fill="#222"></polygon>
                                                            <path d="m28.939 20.633l4.0965-0.65062-2.2772-4.6146 1.482-1.0964-5.5544-6.3858c-0.51573 2.0892-1.7426 3.9338-3.47 5.217-0.67105-0.25601-1.4263-0.15282-2.004 0.27381-0.57778 0.42663-0.89866 1.118-0.85148 1.8347 0.21688 1.5663 2.1567 1.976 2.1567 1.976l-0.60243 5.5906 3.9158 5.2652-1.1205 2.5905c2.7712 2.0242 4.9158 4.5785 11.555 1.6145l-7.3256-11.615z" fill="#875A3B"></path>
                                                            <path d="m47.132 118.65c1.735-25.531-4.6146-75.328-10.844-86.401-7.2292 0-8.8798-0.30122-10.603-3.2652l-0.50604 0.50604s-15.241 24.917-14.169 87.955c11.855 2.6866 24.114 3.0955 36.122 1.2049z" fill="#FFC729"></path>
                                                            <path d="m41.75 44.483c5.2347 2.0098 9.8641 3.8857 9.8641 3.8857l13.073-9.7112 5.7592-4.3014 1.4217-4.2652 0.98799-3.1085 0.83135-0.10844 0.34941 2.4097 4.4218-1.6266-0.74701 4.1447s-3.6146 4.5544-4.8194 5.0002c-0.20483 0.51809-3.1326 6.7231-4.0242 8.8557-4.9399 11.904-14.904 26.158-32.76 16.374 0.0014718-0.0077174 0.0029448-0.015435 0.004419-0.023152-2.7538-1.5547-5.3324-3.401-7.6914-5.5072-11.506-10.073-2.6266-17.543 2.0362-16.097 2.6386 0.83135 6.5665 2.2651 10.314 3.6869l0.98799 0.37351c-0.0027805 0.0060325-0.0055603 0.012065-0.0083392 0.018099z" fill="#875A3B"></path>
                                                            <path d="m21.493 23.453c2.0314 2.4947 5.2851 3.6475 8.434 2.9881 4.699-1.2049 7.4099-6.5544 6.0243-12.049-1.3856-5.4942-6.2653-9.0124-10.976-7.8557-2.3228 0.60457-4.2592 2.2057-5.2893 4.3736-1.1654 2.3838-1.4431 5.1049-0.78316 7.675 0.4562 1.8085 1.3452 3.479 2.5905 4.8676z" fill="#875A3B"></path>
                                                            <path d="m23.011 17.525c1.5784-9.4702 9.9762-8.1449 9.9762-8.434-0.78128-1.8202-2.2752-3.24-4.1327-3.9278-0.43375-0.98799-2.5784-5.2291-6.4581-4.1447-1.8145 0.5176-3.2816 1.8554-3.964 3.6146 0 0-4.217-2.5302-6.7954 1.2892-2.9881 4.4218 1.5181 6.928 1.5181 6.928s-3.9278-0.49399-3.0122 5.9159c0.91569 6.4099 5.6628 4.2291 5.6628 4.2291s-1.5302 2.8555 2.0121 4.8194c3.9881 2.1928 6.8918-1.988 6.8918-1.988-1.2161-1.1213-2.1457-2.5178-2.7109-4.0724 0-0.13253 0.060243-0.25302 0.096389-0.3976-0.33736-0.51809-0.59038-0.97594-0.80726-1.3856-0.25302-0.66267-0.48194-1.3374-0.68677-2.0001 0.012049-1.1687 1.4458-0.81931 2.4097-0.4458z" fill="#36231D"></path>
                                                        </g>
                                                        <path d="m15.051 292.98s73.954-62.389 189.06 0.96c-3.9886 0-189.06-0.96-189.06-0.96z" fill="#148481"></path>
                                                        <path d="m43.909 208.47s6.6514 5.7714 8.8914 5.0171c1.4286-0.49143 3.0057-3.8971 3.6114-9.8971-0.17143-1.2229-3.0743 9.7829-12.503 4.88z" fill="#FF644A"></path>
                                                        <path d="m48.537 192.27s4.5714 3.92 6.0343 3.4286c0.98286-0.32 2.0457-2.64 2.4571-6.7086-0.12571-0.86857-2.0914 6.6057-8.4914 3.28z" fill="#FF644A"></path>
                                                        <path d="m65.749 222.43s4.8686 4.24 6.5143 3.68c1.0514-0.36572 2.1943-2.8571 2.64-7.2457-0.12571-0.90286-2.24 7.1657-9.1543 3.5657z" fill="#FF644A"></path>
                                                        <rect y="291.22" width="400" height="5.7143" fill="#053534"></rect>
                                                        <path d="m275.33 137.67c0.004624 3.5141-2.1086 6.6847-5.3539 8.0327-3.2453 1.348-6.983 0.6077-9.4695-1.8755-2.4865-2.4832-3.2317-6.22-1.888-9.467s4.5116-5.3645 8.0256-5.3645c4.7925-4e-6 8.6794 3.8818 8.6857 8.6743z" fill="#FFC729"></path>
                                                        <path d="m291.23 137.67c0.004624 3.5141-2.1086 6.6847-5.3539 8.0327s-6.983 0.6077-9.4695-1.8755c-2.4865-2.4832-3.2317-6.22-1.888-9.467s4.5116-5.3645 8.0256-5.3645c4.7925-4e-6 8.6794 3.8818 8.6857 8.6743z" fill="#FFA515"></path>
                                                        <path d="m304.54 137.67c0 4.797-3.8887 8.6857-8.6857 8.6857-4.797 0-8.6857-3.8887-8.6857-8.6857 0-4.797 3.8887-8.6857 8.6857-8.6857 2.3036 0 4.5128 0.9151 6.1417 2.544s2.544 3.8381 2.544 6.1417z" fill="#FFB32C"></path>
                                                        <path d="m323.73 137.67c0.009251 3.5197-2.1039 6.698-5.353 8.0514-3.2492 1.3534-6.9937 0.61492-9.4858-1.8706-2.4921-2.4856-3.2404-6.2281-1.8956-9.4808 1.3448-3.2527 4.5175-5.3742 8.0373-5.3742 4.7944-1.7e-5 8.6845 3.8799 8.6971 8.6743z" fill="#FFB42E"></path>
                                                        <path d="m284.01 128.99c-0.00631 4.7955-3.8978 8.6785-8.6933 8.6743s-8.6802-3.894-8.6781-8.6895c0.002101-4.7955 3.8902-8.6819 8.6857-8.6819 2.3065-0.003047 4.5193 0.91264 6.1491 2.5447 1.6299 1.632 2.5427 3.846 2.5366 6.1525z" fill="#FFB42E"></path>
                                                        <path d="m298.94 124.47c0 4.797-3.8887 8.6857-8.6857 8.6857-4.797 0-8.6857-3.8887-8.6857-8.6857 0-4.797 3.8887-8.6857 8.6857-8.6857 2.3036 0 4.5128 0.9151 6.1417 2.544s2.544 3.8381 2.544 6.1417z" fill="#FFC729"></path>
                                                        <path d="m313.93 128.98c0 4.797-3.8887 8.6857-8.6857 8.6857-4.797 0-8.6857-3.8887-8.6857-8.6857 0-4.797 3.8887-8.6857 8.6857-8.6857 2.3036 0 4.5128 0.9151 6.1417 2.544 1.6289 1.6289 2.544 3.8381 2.544 6.1417z" fill="#FFA515"></path>
                                                        <path d="m189.2 223.09c3.4286-27.897 8.8571-39.269 11.154-50.526 8.6171-1.7371 17.04 27.36 17.04 27.36s8.5371-4.08 6.0343 1.5771c-2.6514 5.9657-12.411 40.24-42.583 75.646l-2.4457-0.57143-6.5143-1.6114c4.9371-13.246 11.783-32.48 17.314-51.874z" fill="#0B4EAF"></path>
                                                        <path d="m233.6 168.08h-41.257c0.53714 2.1486 1.1429 4.3314 1.8286 6.5714 9.9314 23.92 13.886 30.549 22.697 42.777 1.1429 13.646 13.051 43.429 23.714 60.777l7.7714-1.2686c-2.64-16.549-10.64-66.994-14.754-108.86z" fill="#266ABC"></path>
                                                        <path d="m168.58 283.5c0.98286-2.5371 2.1714-5.6 3.4857-9.1429l6.5143 1.6114-2.96 7.6457c-2.2499 0.99624-4.8237 0.95446-7.04-0.11429z" fill="#C88E66"></path>
                                                        <path d="m168.58 283.5c2.213 1.0761 4.7868 1.1262 7.04 0.13714l10.434 3.6343 3.3371 3.9657h-23.886s1.1657-2.8343 3.0743-7.7371z" fill="#222"></path>
                                                        <path d="m249.14 281.9l13.92 0.17143 3.4286 2.9943-20.697 6.16-1.8971-6.96c2.0039-0.013939 3.9088-0.87301 5.2457-2.3657z" fill="#222"></path>
                                                        <path d="m248.35 276.94c0.57143 3.5314 0.76571 4.9257 0.77714 4.96-1.3316 1.4868-3.227 2.3454-5.2229 2.3657l-1.7486-6.3543 6.1943-0.97143z" fill="#C88E66"></path>
                                                        <path d="m244.96 74.731l-2.1257-0.17143-1.5314 5.7143-5.0629-3.5314 0.26286 7.6114-7.68-1.6229 0.8-9.2343 4.6629-3.6571s-1.3714-1.8514-0.37714-3.4286c0.50661-0.66129 1.315-1.0192 2.1451-0.94986 0.83015 0.069372 1.5679 0.55652 1.9577 1.2927 2.4829 0.20125 4.9578-0.47409 6.9943-1.9086l-0.045714 9.8857z" fill="#C88E66"></path>
                                                        <path d="m253.21 140.37s-10.537-22.137-12.994-31.029c-12.8 2.2857-16.549 19.269-21.074 22.377 5.0971 38.457 58.571 23.029 58.571 23.029l-24.503-14.377z" fill="#C88E66"></path>
                                                        <path d="m245.9 61.966c0.30857 0.76571 0.08 2.6057-0.61714 3.0514-4.4457 2.8343-7.2 1.9657-7.2686 1.8286-0.38983-0.7362-1.1276-1.2233-1.9577-1.2927-0.83015-0.069372-1.6385 0.28857-2.1451 0.94986-0.99428 1.52 0.37714 3.4286 0.37714 3.4286-1.3257 2.2857-4.5714 4.5714-4.9029 3.9886-0.1945-0.53823-0.2875-1.1079-0.27429-1.68-0.061228-0.58704-0.26956-1.1491-0.60571-1.6343-0.63023-0.67336-1.3492-1.2578-2.1371-1.7371-0.77078-0.76685-1.4219-1.6452-1.9314-2.6057 0 0-2.4343-5.3257 6.2514-11.84 2.1829-1.6343 6.5829-0.52571 8.6971 0 4.3429 1.0286 6.5143 7.5429 6.5143 7.5429z" fill="#36231D"></path>
                                                        <path d="m192.34 168.08s18.994 12.743 47.36 1.7486c5.4629-25.52 0.18286-72.08-2.6171-76.891l6.0571-3.2114-16.24-15.097-2.2057 7.8629s-35.497 23.554-32.354 85.589z" fill="#fff"></path>
                                                        <path d="m249.9 140.02c-1.7486 4.2743 6.1029 15.029 8.9143 16.16 2.8114 1.1314 49.257 2.16 59.577 0s13.451-16 12.206-18.514c-4.2743-8.6629-79.166-1.2229-80.697 2.3543z" fill="#6E4C37"></path>
                                                        <path d="m234.69 101.58c-8-55.04-30.571 32.983-23.554 7.8057-1.3421 4.6593-2.1849 9.4482-2.5143 14.286 8.779-3.7207 18.238-5.5696 27.771-5.4286-0.49143-6.1143-1.0971-12.469-1.7029-16.663z" fill="#fff"></path>
                                                        <path d="m237.71 136.09s-0.53714-8.6514-1.3029-17.851c-9.5339-0.14098-18.992 1.7079-27.771 5.4286-2.7771 49.417 71.451 32.4 71.451 32.4l-42.377-19.977z" fill="#C88E66"></path>
                                                        <path d="m280.67 161.14s-4.9257-1.2229-6.3086-2.5257c-0.85714 0.057143-11.326-0.10286-12.206 0l11.006-4.8686 0.46857 0.14857 9.2914-1.1429 5.8857 4.7657-8.1371 3.6229z" fill="#C88E66"></path>
                                                        <path d="m123.36 281.54c0-0.13714 0.89143-6.3314 0.89143-6.3314l-6.9943 0.17143-1.1429 8.3086c2.5723 2.1e-5 5.0893-0.74635 7.2457-2.1486z" fill="#875A3B"></path>
                                                        <path d="m143.58 290.63l-1.3943-4.1829-18.834-4.8686c-2.1565 1.4022-4.6735 2.1486-7.2457 2.1486l-0.93714 6.8571 28.411 0.045714z" fill="#fff"></path>
                                                        <path d="m141.12 158.13c-5.1771-0.98286-32.354 1.7143-40.514 0.30857 4.6857 23.097 3.6114 35.063 9.9314 49.04-0.20571 17.2-1.3486 34.88 4.08 67.726 3.2229 0.25143 10.434-0.20571 10.434-0.20571 4.3429-16.903 13.234-66.32 16.069-116.87z" fill="#0B4EAF"></path>
                                                        <path d="m131.58 217.43c4.4914-7.52 12.011-44.366 12-55.349 0-7.3143-12.354 4.9943-13.074-2.8343-4.2971-3.4857-26.011 5.5314-30.171 1.9086-1.1429 13.451 1.8057 34.091 4.3429 48.754-9.36 22.4-21.714 48-27.6 59.497l8.8571 5.2686c18.11-16.582 33.512-35.898 45.646-57.246z" fill="#266ABC"></path>
                                                        <path d="m81.326 276.95s-3.2 1.3714-7.76-0.83428c-2.2057 4.16-3.4971 6.4686-3.4971 6.4686l13.36 7.8286 11.177 0.35428-2.0343-4.3657-4.5714-1.1429-6.6743-8.3086z" fill="#fff"></path>
                                                        <path d="m81.326 276.95l2.1029-3.7486-6.3771-3.7943c-0.97143 1.8629-2.7429 5.2571-3.5086 6.7086 4.5829 2.2057 7.7829 0.83428 7.7829 0.83428z" fill="#875A3B"></path>
                                                        <path d="m149.57 79.44s-1.44-1.4057-0.78857-2.8571c0.34289-0.64295 0.98974-1.0669 1.7161-1.1247s1.4322 0.25841 1.8725 0.839c2.1779-0.16864 4.2279-1.0946 5.7943-2.6171l1.3257 8.4914-1.8514 0.13714-0.53714 5.1886-5.3486-1.0171-0.61714 6.7543-4.4914-1.8743-0.35429-4.9257-0.20571-2.5143 3.4857-4.48z" fill="#875A3B"></path>
                                                        <path d="m196.16 139.52c-0.38857 0.16-0.8 0.33143-1.2114 0.48 0.48-0.14857 0.82286-0.32 1.2114-0.48z" fill="#754E34"></path>
                                                        <path d="m141.18 110.86c-4.2347-0.63503-8.4995-1.0508-12.777-1.2457-4.6629-0.21714-9.1429-0.54857-13.714-1.04-2.0999 1.8008-3.6124 4.1891-4.3429 6.8571-2.5257 14.937 30.949 21.006 46.697 22.971 8.873 3.3962 18.391 4.7743 27.863 4.0343 1.1429-3.9086 0.92571-7.44 2.3657-11.76l-23.646-4.6743c-7.0338-5.682-14.543-10.748-22.446-15.143z" fill="#754E34"></path>
                                                        <path d="m194.95 140h-0.091428 0.091428z" fill="#754E34"></path>
                                                        <path d="m197.42 138.95c-0.4 0.19429-0.82286 0.38857-1.2571 0.57143 0.41143-0.19429 0.85714-0.37714 1.2571-0.57143z" fill="#754E34"></path>
                                                        <path d="m94.629 173.37s21.486 15.611 48.949 10.72c4.7886-22.389 11.771-79.886 9.3143-84.103l5.3143-2.8457-14.206-13.211-1.92 6.8571c-3.1369 0.96826-6.1109 2.4013-8.8229 4.2514-0.66286 0.42286-1.3371 0.88-2.0343 1.3829-11.223 8.0229-23.314 18.709-36.594 76.949z" fill="#fff"></path>
                                                        <path d="m115.35 121.95c3.7257-6.0914 4.48-13.257 9.1429-16.971 4.3886-3.5429 10.96-2.7543 14.297-5.1086 6.9829-4.9257 10.811-20.434 10.811-20.434s-1.44-1.4057-0.78857-2.8571c0.34289-0.64295 0.98974-1.0669 1.7161-1.1247s1.4322 0.25841 1.8725 0.839c2.1779-0.16864 4.2279-1.0946 5.7943-2.6171 0.43428-7.1314-7.4857-8.4457-10.286-8.6743-0.048928-0.010859-0.099642-0.010859-0.14857 0h-0.81143c-0.55096 2.188e-4 -1.1011 0.042244-1.6457 0.12571-7.7371 1.2914-9.8629 8.8686-14.857 10.857-4.9943 1.9886-7.3371-1.7143-16.366 1.2571s-8.4571 7.84-13.554 10.583c-5.0971 2.7429-19.92-4.4-27.52 7.6914-21.463 34.16 24.286 55.943 42.343 26.434z" fill="#222"></path>
                                                        <path d="m205.83 110.86s25.143-2.9714 16-12.263c-9.1429-9.2914-15.257-9.0286-21.566 10.869-5.6457-7.1086-5.3371-18.834-13.017-14.194s-10.777 9.2914-8.7886 10.4c1.9886 1.1086 13.543 5.1886 13.543 5.1886h13.829z" fill="#00BABA"></path>
                                                        <path d="m175.49 147.74c2.5714 1.4514 8.2286 2.1829 14.651 2.4 3.3143 0.12571 6.8571 0.12571 10.217 0 9.3829-0.28571 17.909-1.3257 18.903-2.4114 2.08-2.2857 9.2343-29.714 6.5486-32-1.9886-1.7371-10.206-3.5771-19.977-4.88-4.4229-0.60571-9.1429-1.1429-13.783-1.3943-11.429-0.78857-22.137-0.54857-25.531 1.6-2.6171 1.6343 1.3714 32.411 8.9714 36.686z" fill="#017070"></path>
                                                        <path d="m190.14 150.14c3.3143 0.12571 6.8571 0.12571 10.217 0l5.4743-39.28c-4.4229-0.60571-9.1429-1.1429-13.783-1.3943l-1.9086 40.674z" fill="#00BABA"></path>
                                                        <path d="m105.31 139.02c-0.33249 0.18514-0.55101 0.52363-0.58286 0.90286-0.15363 0.54738-0.2682 1.105-0.34286 1.6686 0 0.89143 1.3486 0.89143 1.3943 0 0.065882-0.51714 0.19643-1.024 0.38857-1.5086 0.21002-0.25535 0.21178-0.6231 0.004234-0.88046-0.20755-0.25736-0.56733-0.33354-0.86138-0.18239z" fill="#EAEAEA"></path>
                                                        <path d="m106.69 148.57c-0.20906-0.14628-0.39086-0.32808-0.53714-0.53714-0.42286-0.78857-1.6229-0.091429-1.1429 0.70857 0.1068 0.23573 0.27202 0.44028 0.48 0.59429 0.14857 0.091428 0.32 0.29714 0.26286 0.10286 0.074622 0.22642 0.2581 0.40015 0.48827 0.46229 0.23016 0.062144 0.47615 0.004379 0.65459-0.15372 0.19162-0.15683 0.2838-0.40478 0.24118-0.64869-0.042627-0.24392-0.21344-0.44591-0.44689-0.52845z" fill="#EAEAEA"></path>
                                                        <path d="m114.48 143.67c-0.3096 0.008142-0.57804 0.21642-0.66286 0.51429-0.08 0.20571-0.22857 0.38857-0.30857 0.61714-0.092083 0.28935-0.14962 0.58857-0.17143 0.89143v0.068571c0 0.38502 0.31212 0.69714 0.69714 0.69714 0.38502 0 0.69714-0.31212 0.69714-0.69714 0.034612-0.33446 0.13978-0.65776 0.30857-0.94857 0.16578-0.21372 0.19542-0.50318 0.076407-0.74607-0.11902-0.24289-0.36593-0.39683-0.63641-0.39679z" fill="#EAEAEA"></path>
                                                        <path d="m110.55 142.32c0.11429 0.13714 0.10286 0.091429 0-0.12571-0.042576-0.10976-0.092203-0.21665-0.14857-0.32 0.16 0.30857-0.068571-0.22857-0.11429-0.29714-0.53714-0.69714-1.7486 0-1.1429 0.70857-0.00652-0.060778-0.00652-0.12208 0-0.18286-0.002639 0.12582 0.033251 0.24944 0.10286 0.35429 0.068572 0.14857 0.13714 0.28571 0.19429 0.43429 0.097915 0.26022 0.27861 0.48107 0.51429 0.62857 0.65143 0.48 1.3486-0.66286 0.59428-1.2z" fill="#EAEAEA"></path>
                                                        <path d="m111.06 149.71v1.2571c-0.093845 0.21064-0.073535 0.45464 0.053846 0.64687 0.12738 0.19223 0.34416 0.30603 0.57473 0.3017 0.38502 0 0.69714-0.31212 0.69714-0.69714 0-0.50286 0-0.99429 0.057143-1.5086 0.068572-0.90286-1.3257-0.90286-1.3829 0z" fill="#EAEAEA"></path>
                                                        <path d="m108.32 154.39c-0.13863-0.070826-0.27227-0.15101-0.4-0.24-0.24-0.16-0.20571 0-0.37714-0.33143-0.46857-0.75429-1.68-0.057143-1.1429 0.70857 0.41138 0.59004 1.0059 1.0279 1.6914 1.2457 0.20984 0.057036 0.43427 0.012894 0.60687-0.11936 0.1726-0.13226 0.27361-0.33748 0.27313-0.55492 0.019802-0.18328-0.040386-0.36619-0.16515-0.5019s-0.30199-0.21103-0.48628-0.20667z" fill="#EAEAEA"></path>
                                                        <path d="m116.57 154.29c-0.50565 0.49827-0.92987 1.0729-1.2571 1.7029l0.091428-0.068571c-0.36571 0.49143 0 1.3714 0.67429 1.1429 0.29278-0.1165 0.516-0.36079 0.60571-0.66286 0.22018-0.41232 0.51464-0.7804 0.86857-1.0857 0.60571-0.70857-0.37714-1.6914-0.98286-1.0286z" fill="#EAEAEA"></path>
                                                        <path d="m118.86 149.04c-0.3907-0.29268-0.81697-0.53462-1.2686-0.72-0.19689-0.16628-0.46945-0.21038-0.70872-0.11467-0.23928 0.095711-0.40624 0.31562-0.43413 0.57181 0.005255 0.30949 0.20772 0.58098 0.50286 0.67429-0.36571-0.16 0.24 0.18286 0.30857 0.19428 0.23679 0.070157 0.46064 0.17822 0.66286 0.32 0.59429 0.61714 1.5886-0.35428 0.93714-0.92571z" fill="#EAEAEA"></path>
                                                        <path d="m102.77 159.03c-0.24986-0.15575-0.51874-0.27866-0.8-0.36571-0.39411-0.023573-0.78098-0.11642-1.1429-0.27429-0.30116-0.089044-0.62468 0.034269-0.79017 0.30118-0.16549 0.26691-0.13208 0.61152 0.081598 0.84168 0.58006 0.23536 1.1758 0.43012 1.7829 0.58286 0.20237 0.1594 0.47531 0.19641 0.71282 0.096655s0.40217-0.32056 0.43003-0.57666v-0.068572c-0.003553-0.2118-0.1048-0.41007-0.27429-0.53714z" fill="#EAEAEA"></path>
                                                        <path d="m102.65 153.83v1.4514c0 0.38502 0.31212 0.69714 0.69714 0.69714 0.38502 0 0.69714-0.31212 0.69714-0.69714v-1.4514c0-0.38502-0.31212-0.69714-0.69714-0.69714-0.38502 0-0.69714 0.31212-0.69714 0.69714z" fill="#EAEAEA"></path>
                                                        <path d="m113.14 161.65c0.00623-0.056973 0.00623-0.11446 0-0.17143l-0.13714-0.65143c-0.068571-0.33143-0.13714-0.65143-0.21714-0.97143-0.13022-0.33144-0.48929-0.51146-0.83277-0.41751s-0.56096 0.43165-0.50437 0.78323c0.091428 0.4 0.17143 0.78857 0.25143 1.1429 0.035078 0.23899 0.084694 0.47562 0.14857 0.70857-0.00644 0.041658-0.00644 0.084057 0 0.12572 0.021989 0.05427 0.05289 0.10448 0.091428 0.14857 0.12453 0.21436 0.35396 0.346 0.60187 0.34533 0.24791-6.69e-4 0.47662-0.13354 0.6-0.34857 0.12337-0.21503 0.12266-0.47954-0.001872-0.6939z" fill="#EAEAEA"></path>
                                                        <path d="m108.31 160.88c-0.20774 0.23058-0.43319 0.44457-0.67428 0.64l-0.28572 0.18286c-0.16713 0.052049-0.29631 0.18554-0.34286 0.35429-0.13775 0.23931-0.12127 0.53737 0.042023 0.76004s0.44261 0.32798 0.71226 0.26853c0.15697-0.030957 0.29377-0.1263 0.37714-0.26286l0.29714-0.20571c0.2854-0.22664 0.55287-0.475 0.8-0.74286 0.68571-0.65143-0.29714-1.6343-0.92572-0.99429z" fill="#EAEAEA"></path>
                                                        <path d="m103.71 165.07c-0.028077-0.043256-0.062788-0.081824-0.10286-0.11429-0.20572-0.32-0.49143-0.62857-0.70857-0.92571-0.51429-0.73143-1.7143 0-1.2 0.69714 0.31691 0.38746 0.6071 0.79602 0.86857 1.2229 0.16215 0.26452 0.47959 0.39004 0.7788 0.30796 0.2992-0.082083 0.50816-0.35202 0.51263-0.66224-0.003395-0.18511-0.054574-0.36621-0.14857-0.52571z" fill="#EAEAEA"></path>
                                                        <path d="m112 165.01c-0.26078 0.044186-0.52423 0.070912-0.78857 0.08-0.34771 0.044796-0.60807 0.34084-0.60807 0.69143 0 0.35058 0.26036 0.64663 0.60807 0.69143 0.38857 0 0.72-0.08 1.1429-0.11428 0.38055-0.00624 0.68576-0.31654 0.68571-0.69714 0.025125-0.25873-0.098206-0.50942-0.3185-0.6474-0.2203-0.13799-0.49968-0.13955-0.7215-0.004025z" fill="#EAEAEA"></path>
                                                        <path d="m117.47 160.83c-0.10221 0.37363-0.16729 0.75644-0.19429 1.1429v0.057143 0.057143c0 0.38502 0.31212 0.69714 0.69714 0.69714 0.38502 0 0.69714-0.31212 0.69714-0.69714 0.015056-0.31312 0.064886-0.6236 0.14857-0.92572 0.054445-0.35673-0.17234-0.69605-0.52278-0.78218-0.35044-0.086125-0.70868 0.10942-0.82579 0.45075z" fill="#EAEAEA"></path>
                                                        <path d="m124.43 162.98c-0.21466-0.25655-0.44765-0.49718-0.69714-0.72-0.68571-0.57143-1.6686 0.41143-0.98286 0.98286 0.3375 0.30326 0.6473 0.63601 0.92571 0.99429 0.22383 0.22649 0.57412 0.2691 0.84571 0.10286 0.24566-0.15232 0.39652-0.41954 0.4-0.70857 0.022771-0.1518-0.016485-0.30637-0.10892-0.42891-0.09244-0.12254-0.23029-0.20273-0.3825-0.22252z" fill="#EAEAEA"></path>
                                                        <path d="m121.77 155.79c-0.22868 0.40674-0.4053 0.84062-0.52572 1.2914-0.029679 0.062148-0.052666 0.12728-0.068571 0.19429v0.12571 0.068572c-0.002977 0.35164 0.25641 0.65045 0.60498 0.69693s0.67719-0.17393 0.76645-0.51407c0.095467-0.39959 0.24544-0.78414 0.44572-1.1429 0.19882-0.33768 0.086254-0.77261-0.25143-0.97143-0.33768-0.19882-0.77261-0.086254-0.97143 0.25143z" fill="#EAEAEA"></path>
                                                        <path d="m129.81 160.59c-0.30603-0.18388-0.58981-0.40247-0.84571-0.65143-0.15408-0.27118-0.46953-0.40703-0.77243-0.33264-0.3029 0.074395-0.51952 0.34093-0.53043 0.65264 0 0.60571 0.77714 1.1429 1.3029 1.4514 0.16222 0.16131 0.39058 0.23743 0.61714 0.20571h0.057143c0.2352-0.068139 0.41741-0.25469 0.48-0.49143 0.10177-0.31598-0.025687-0.66058-0.30857-0.83428z" fill="#EAEAEA"></path>
                                                        <path d="m111.12 133.52c-0.1823 0.001257-0.35756 0.070545-0.49143 0.19429-0.12254 0.094138-0.25249 0.17822-0.38857 0.25143-0.34339 0.14149-0.63196 0.38999-0.82286 0.70857-0.4 0.81143 0.8 1.5086 1.2 0.70857 0-0.11429 0.21714-0.16 0.32-0.20571 0.14825-0.076774 0.28021-0.18156 0.38857-0.30857 0.30841-0.11594 0.49354-0.43197 0.44385-0.75768-0.049685-0.32571-0.32062-0.57217-0.64957-0.59089z" fill="#EAEAEA"></path>
                                                        <path d="m115.18 137.14c-0.4834 0.028287-0.96803 0.028287-1.4514 0-0.88-0.11429-0.88 1.28 0 1.3943 0.4834 0.028287 0.96803 0.028287 1.4514 0 0.24906 0 0.47921-0.13288 0.60374-0.34857 0.12453-0.2157 0.12453-0.48145 0-0.69714-0.12453-0.2157-0.35468-0.34857-0.60374-0.34857z" fill="#EAEAEA"></path>
                                                        <path d="m120.11 131.87c-0.22042-0.21893-0.42656-0.45179-0.61714-0.69714-0.23955-0.19834-0.45442-0.42472-0.64-0.67429-0.35429-0.82286-1.5543-0.11429-1.1429 0.69714 0.22573 0.36889 0.51608 0.69408 0.85714 0.96 0.27167 0.33235 0.57395 0.63846 0.90286 0.91429 0.67428 0.52571 1.3714-0.68572 0.64-1.2z" fill="#EAEAEA"></path>
                                                        <path d="m113.93 127.18c-0.46602 0.3236-0.856 0.74479-1.1429 1.2343-0.33143 0.48 0 1.3143 0.70857 1.0743 0.22958-0.10382 0.41842-0.28061 0.53714-0.50286 0.22682-0.30109 0.50084-0.56352 0.81143-0.77714 0.77714-0.60571-0.21714-1.5886-0.91428-1.0286z" fill="#EAEAEA"></path>
                                                        <path d="m120.81 122.67c-0.29714 0-0.56-0.36572-0.85714-0.43429-0.35567-0.068556-0.70459 0.14668-0.80291 0.4953-0.098327 0.34861 0.086699 0.71445 0.42577 0.84185 0.18364 0.08565 0.35631 0.19309 0.51429 0.32 0.22642 0.10386 0.47107 0.16211 0.72 0.17143 0.89143 0.091429 0.88-1.3029 0-1.3943z" fill="#EAEAEA"></path>
                                                        <path d="m126.55 117.2c-0.48-0.25143-0.73143-0.86857-1.2114-1.1429-0.81143-0.38857-1.5086 0.81143-0.70857 1.1429 0.17143 0.08 0.37714 0.38857 0.52572 0.52571 0.20832 0.21807 0.44242 0.40996 0.69714 0.57143 0.8 0.56 1.5086-0.69714 0.69714-1.0971z" fill="#EAEAEA"></path>
                                                        <path d="m127.83 106.61c-0.31258 0.006841-0.58503 0.21464-0.67428 0.51429-0.19429 0.46857-0.33143 0.97143-0.52572 1.4514-0.33143 0.83428 1.0171 1.1429 1.3486 0.36571 0.14857-0.38857 0.27429-0.77714 0.41143-1.1429 0.20945-0.20785 0.26536-0.52505 0.1396-0.79198-0.12577-0.26693-0.40596-0.42577-0.6996-0.39659z" fill="#EAEAEA"></path>
                                                        <path d="m133.86 104.06c-0.11429 0-0.24-0.14857-0.35429-0.19429-0.8-0.36571-1.5086 0.83429-0.69714 1.2 0.32652 0.1845 0.68208 0.31204 1.0514 0.37714 0.89143 0.11429 0.88-1.28 0-1.3829z" fill="#EAEAEA"></path>
                                                        <path d="m139.82 100.57c-0.18904 0.46245-0.30101 0.95276-0.33143 1.4514-0.068571 0.49143-0.26286 1.0057 0 1.4514 0.16751 0.25895 0.48328 0.37981 0.78088 0.29889s0.50868-0.34505 0.52198-0.65317v-0.11429c0.013008-0.075635 0.013008-0.15294 0-0.22857 0-0.17143 0-0.35429 0.08-0.52571 0.006755-0.3223 0.06066-0.64188 0.16-0.94857 0.37714-0.89143-0.82286-1.6-1.2114-0.73143z" fill="#EAEAEA"></path>
                                                        <path d="m145.79 98.286c-0.28934-0.12475-0.59939-0.19451-0.91429-0.20571h-0.068571c-0.1252-0.070184-0.26829-0.10198-0.41143-0.091429-0.32716 0.023225-0.59388 0.27135-0.64065 0.59598-0.046769 0.32463 0.13907 0.63796 0.44637 0.75259 0.37714 0.19429 0.85714 0.08 1.2457 0.28571 0.21387 0.12085 0.47556 0.12023 0.68885-0.0016523 0.21329-0.12188 0.34669-0.34702 0.35115-0.59263 0.033195-0.19714-0.027633-0.39846-0.16444-0.54423-0.1368-0.14577-0.33386-0.21925-0.53271-0.19862z" fill="#EAEAEA"></path>
                                                        <path d="m146.85 91.543c-0.25487 0.40156-0.41871 0.85406-0.48 1.3257-0.14857 0.88 1.2 1.2571 1.3371 0.37714 0.042914-0.35189 0.15976-0.69073 0.34286-0.99429 0.52572-0.75429-0.70857-1.4514-1.2-0.70857z" fill="#EAEAEA"></path>
                                                        <path d="m154.18 97.371c-0.18073-0.33529-0.30433-0.69836-0.36571-1.0743-0.16-0.88-1.4971-0.50286-1.3371 0.37714 0.11429 0.64 0.49143 1.9543 1.3029 1.9543 0.298-0.0064144 0.55895-0.20157 0.64932-0.48561 0.090374-0.28403-0.009825-0.5941-0.24932-0.77154z" fill="#EAEAEA"></path>
                                                        <path d="m151.17 104c-0.28882 0.21448-0.54986 0.46401-0.77714 0.74286-0.19428 0.20571-0.38857 0.4-0.56 0.61714-0.21376 0.10817-0.34368 0.33217-0.33143 0.57143v0.11428c0.004476 0.31023 0.21343 0.58016 0.51263 0.66224 0.2992 0.082083 0.61665-0.043444 0.7788-0.30796 0.16247-0.25041 0.35859-0.47729 0.58286-0.67429 0.11331-0.092479 0.2133-0.20016 0.29714-0.32 0 0 0.49143-0.37714 0.20572-0.20571 0.31788-0.20158 0.41834-0.61909 0.22696-0.94321-0.19138-0.32412-0.6055-0.43779-0.93553-0.25679z" fill="#EAEAEA"></path>
                                                        <path d="m135.6 163.17c-0.69714 0-1.3829-0.11428-2.0914-0.11428-0.18386-2.6e-5 -0.36003 0.073785-0.48896 0.20486s-0.19982 0.30844-0.19676 0.49228v0.057143c-0.001997 0.21134 0.096902 0.41095 0.26625 0.5374 0.16935 0.12644 0.38884 0.16456 0.5909 0.1026 0.64 0 1.28 0.11429 1.92 0.11429 0.38502 0 0.69714-0.31212 0.69714-0.69714 0-0.38502-0.31212-0.69714-0.69714-0.69714z" fill="#EAEAEA"></path>
                                                        <path d="m121.46 139.21c0-0.13714 0.08-0.27429 0.11429-0.41143 0.14552-0.42771 0.25261-0.86755 0.32-1.3143 0.068571-0.89143 1.4629-0.89143 1.3943 0 0 0.68572-0.42286 1.3257-0.46857 1.9886 8.65e-4 0.5503-0.3412 1.0429-0.85714 1.2343-0.20984 0.057037-0.43427 0.012895-0.60687-0.11936-0.1726-0.13226-0.27361-0.33748-0.27313-0.55492v-0.22857c-0.004281-0.25564 0.14401-0.48931 0.37714-0.59428z" fill="#EAEAEA"></path>
                                                        <path d="m123.55 129.87c0.30857-0.83429 1.1429-1.1429 1.68-1.7029s1.6229 0.35428 0.98286 0.98286c-0.21376 0.2389-0.45997 0.44663-0.73143 0.61714-0.17143 0.11428-0.51428 0.26286-0.59428 0.46857-0.32 0.83429-1.6571 0.48-1.3371-0.36571z" fill="#EAEAEA"></path>
                                                        <path d="m127.33 143.22c0.22697 0.70026 0.39142 1.4193 0.49143 2.1486 0 0.90286-1.3486 0.90286-1.3943 0-0.092007-0.60591-0.23733-1.2025-0.43429-1.7829-0.18286-0.88 1.1543-1.2457 1.3371-0.36571z" fill="#EAEAEA"></path>
                                                        <path d="m123.43 146.86c0.16 0.20571 0.48 0.50286 0.52572 0.76571 0.01766 0.11775 0.073941 0.22629 0.16 0.30857 0.091428 0.14857 0 0.32 0.11428 0.45714 0.43429 0.78857-0.76571 1.4857-1.1429 0.69714-0.092924-0.16652-0.15488-0.34851-0.18286-0.53714-0.11333-0.24694-0.24713-0.48396-0.4-0.70857-0.60571-0.69714 0.37714-1.68 0.92571-0.98286z" fill="#EAEAEA"></path>
                                                        <path d="m131.58 152.48c0.78857-0.26286 1.3714-0.88 2.2057-1.04s1.2457 1.1429 0.36571 1.3371c-0.75642 0.29983-1.4931 0.64719-2.2057 1.04-0.84571 0.29714-1.2114-1.0514-0.36571-1.3371z" fill="#EAEAEA"></path>
                                                        <path d="m122.57 172.15c0.21249-0.16386 0.34874-0.40746 0.37714-0.67428 0-0.89143 1.44-0.89143 1.3829 0-0.023637 0.6349-0.30412 1.233-0.77714 1.6571-0.62857 0.64-1.6114-0.34286-0.98286-0.98286z" fill="#EAEAEA"></path>
                                                        <path d="m114.06 170.81c0.50304-0.16961 0.93135-0.50903 1.2114-0.96 0.50286-0.73143 1.7029 0 1.1429 0.70857-0.46766 0.75922-1.1943 1.3235-2.0457 1.5886-0.8 0.26286-1.1657-1.0857-0.30857-1.3371z" fill="#EAEAEA"></path>
                                                        <path d="m101.94 169.74c0.65402-0.021857 1.307 0.067014 1.9314 0.26286 0.83428 0.28571 0.48 1.6343-0.37714 1.3371-0.50305-0.15453-1.0284-0.22406-1.5543-0.20571-0.38502-1e-6 -0.69714-0.31212-0.69714-0.69714 0-0.38502 0.31212-0.69714 0.69714-0.69714z" fill="#EAEAEA"></path>
                                                        <path d="m107.52 169.51c0.044796-0.34771 0.34084-0.60807 0.69143-0.60807 0.35058 0 0.64663 0.26036 0.69143 0.60807 0.080053 0.67956 0.080053 1.3662 0 2.0457-0.21714 0.86857-1.5543 0.49143-1.3371-0.37714 0.028947-0.20852 0.028947-0.42005 0-0.62857-0.08-0.34286-0.045714-0.69714-0.045714-1.04z" fill="#EAEAEA"></path>
                                                        <path d="m98.286 170.14c0.35429 0.72 0.99429 2.0114 0.10286 2.5714-0.64 0.41143-1.2229-0.36571-0.94857-0.91428-0.035041-0.1354-0.077001-0.2689-0.12571-0.4-0.059544-0.19304-0.13603-0.38043-0.22857-0.56-0.42286-0.8 0.77714-1.5086 1.2-0.69714z" fill="#EAEAEA"></path>
                                                        <path d="m105.77 176.58c0.49256-0.036761 0.98774 0.013531 1.4629 0.14857 0.84571 0.27428 0.48 1.6229-0.36572 1.3371-0.37346-0.092323-0.75947-0.1232-1.1429-0.091428-0.38502-0.012624-0.68691-0.33498-0.67428-0.72 0.012623-0.38502 0.33498-0.68691 0.72-0.67429z" fill="#EAEAEA"></path>
                                                        <path d="m115.35 177.14v-0.42286c0.08-0.88 1.4743-0.89143 1.3943 0 0.005586 0.57552-0.14872 1.1413-0.44571 1.6343-0.20192 0.32617-0.62412 0.43674-0.96 0.25143-0.28578-0.18091-0.45846-0.49606-0.45714-0.83428-0.022838-0.14574 0.013979-0.29452 0.10214-0.41279s0.22024-0.19604 0.36643-0.21578z" fill="#EAEAEA"></path>
                                                        <path d="m130.9 178.58c0.65086 0.2768 1.0921 0.89454 1.1429 1.6 0.11429 0.89143-1.28 0.88-1.3943 0 0-0.068571-0.27429-0.32-0.068572-0.25143-0.33509-0.11926-0.52667-0.47167-0.44455-0.81774 0.082118-0.34607 0.4116-0.57483 0.76455-0.53083z" fill="#EAEAEA"></path>
                                                        <path d="m129.44 170.29c0.64-0.38857 0.92571-0.92571 1.7486-1.0171 0.82286-0.091428 0.86857 1.2914 0 1.3943-0.33143 0-0.75428 0.65143-1.0514 0.83429-0.76571 0.46857-1.4629-0.73143-0.69714-1.2114z" fill="#EAEAEA"></path>
                                                        <path d="m120.74 178.54c0.61714-0.30857 0.72-1.1429 1.44-1.3486 0.3724-0.10099 0.75615 0.11903 0.85714 0.49143s-0.11903 0.75615-0.49143 0.85714c0.21714-0.068572 0 0 0 0.13714l-0.30857 0.38857c-0.12589 0.16217-0.26753 0.31147-0.42286 0.44571-0.11239 0.20973-0.33358 0.33802-0.57143 0.33143h-0.10286c-0.70857 0-1.0514-0.99429-0.4-1.3029z" fill="#EAEAEA"></path>
                                                        <path d="m139.19 180.9c0.62857-0.33143 1.1429-0.84571 1.7943-1.1429 0.83429-0.34286 1.1429 1.0057 0.36571 1.3486-0.17568 0.11459-0.34366 0.24058-0.50286 0.37714-0.30231 0.21943-0.61924 0.41798-0.94857 0.59429-0.78857 0.44571-1.4971-0.75429-0.70857-1.1771z" fill="#EAEAEA"></path>
                                                        <path d="m136.98 174.38c0.83429-0.057143 1.1429 0.91429 1.4171 1.5086 0.36571 0.81143-0.83429 1.52-1.1429 0.70857-0.068572-0.14857-0.12571-0.29714-0.19429-0.43429-0.037093-0.097283-0.079051-0.19264-0.12571-0.28571-0.01996-0.045814-0.046952-0.08823-0.08-0.12572-0.30939-0.10579-0.50621-0.40954-0.47637-0.73514 0.029847-0.32561 0.27862-0.58851 0.60208-0.63628z" fill="#EAEAEA"></path>
                                                        <path d="m142.86 168.49c0.27429-0.057143 1.2343-0.17143 1.3257-0.37714 0.36571-0.81143 1.5657-0.10286 1.1429 0.69714s-1.4629 0.88-2.16 1.0171c-0.84571 0.18286-1.2114-1.1657-0.30857-1.3371z" fill="#EAEAEA"></path>
                                                        <path d="m138.15 168.23c0 0.32 0.091429 0.61714 0.11429 0.93714 0.068572 0.89143-1.3257 0.88-1.3943 0 0-0.32-0.091428-0.61714-0.11428-0.93714-0.068572-0.89143 1.3257-0.89143 1.3943 0z" fill="#EAEAEA"></path>
                                                        <path d="m138.49 155.12c0.046023 0.21624 0.11498 0.42696 0.20571 0.62857 0.29714 0.84572-1.04 1.2114-1.3371 0.36572-0.12753-0.31957-0.2158-0.65344-0.26286-0.99429-0.091429-0.83429 1.2914-0.83429 1.3943 0z" fill="#EAEAEA"></path>
                                                        <path d="m144.3 159.05c0.3222-0.19252 0.65838-0.36061 1.0057-0.50286 0.33143-0.13714 0.68571-0.13714 1.0057-0.27428 0.83429-0.33143 1.1429 1.0171 0.37714 1.3486-0.27428 0.10286-0.53714 0.10286-0.81143 0.18286-0.30654 0.12091-0.60115 0.27012-0.88 0.44572-0.8 0.41143-1.4971-0.8-0.69714-1.2z" fill="#EAEAEA"></path>
                                                        <path d="m128.29 134.86c-0.015364 0.20994 0.015857 0.42068 0.091429 0.61714 0.32 0.84571-1.0286 1.1429-1.3486 0.37714-0.11944-0.31762-0.17761-0.655-0.17143-0.99429 0-0.39449 0.3198-0.71429 0.71429-0.71429 0.39449 0 0.71428 0.3198 0.71428 0.71429z" fill="#EAEAEA"></path>
                                                        <path d="m199.21 144.63l-0.8-0.83428-4.2971 1.4743-5.9771 1.9543-9.6-2.88-21.714-6.5143s-1.9886-7.6686-4.2629-15.76c-1.5086-5.3829-3.1657-10.971-4.4343-14.617-2.2857-6.4343-18.034-10.126-19.726 11.097-0.3951 4.4034-0.31463 8.8366 0.24 13.223 3.8629 28.16 28.114 27.429 45.554 23.109 3.12-0.76571 12.514-2.64 13.269-2.8457 1.4629 0.93714 9.5543 1.1429 9.5543 1.1429l5.2571-2.5943-5.4857-3.6 2.4229-2.3543z" fill="#875A3B"></path>
                                                    </g>
                                                </g>
                                            </g>
                                        </svg>
